<svg xmlns="http://www.w3.org/2000/svg" version="1.1" xmlns:xlink="http://www.w3.org/1999/xlink" xmlns:svgjs="http://svgjs.com/svgjs" width="1920" height="1080" preserveAspectRatio="none" viewBox="0 0 1920 1080"><g mask="url(&quot;#SvgjsMask1017&quot;)" fill="none"><rect width="1920" height="1080" x="0" y="0" fill="#0e2a47"></rect><path d="M-41.12767692189806 533.8617739561756L-13.969086799849578 792.2584984401944 244.42763768416927 765.0999083181459 217.26904756212076 506.7031838341271z" fill="rgba(28, 83, 142, 0.4)" class="triangle-float3"></path><path d="M339.116,1050.469C432.175,1052.426,520.977,1009.854,570.747,931.197C624.257,846.628,644.49,736.64,591.347,651.84C540.523,570.74,434.821,560.672,339.116,561.585C245.565,562.478,143.095,576.277,95.089,656.576C46.184,738.379,73.575,840.778,123.768,921.797C170.968,997.985,249.512,1048.585,339.116,1050.469" fill="rgba(28, 83, 142, 0.4)" class="triangle-float1"></path><path d="M750.066,1326.535C864.572,1324.867,981.076,1281.083,1035.246,1180.187C1087.196,1083.426,1051.103,968.426,992.041,875.834C938.066,791.216,850.358,736.987,750.066,733.107C642.004,728.927,532.801,765.443,473.336,855.769C407.771,955.361,389.703,1085.916,450.127,1188.709C509.889,1290.375,632.149,1328.252,750.066,1326.535" fill="rgba(28, 83, 142, 0.4)" class="triangle-float2"></path><path d="M1346.626,841.622C1411.394,840.83,1453.534,779.66,1482.722,721.836C1508.52,670.728,1517.649,610.612,1487.937,561.676C1459.175,514.304,1402.019,499.427,1346.626,497.686C1287.074,495.815,1220.589,501.736,1189.048,552.284C1156.205,604.919,1174.964,670.754,1204.637,725.239C1236.008,782.841,1281.04,842.424,1346.626,841.622" fill="rgba(28, 83, 142, 0.4)" class="triangle-float1"></path><path d="M885.78,276.365C958.977,282.078,1029.08,238.302,1063.732,173.574C1096.711,111.971,1082.972,37.567,1045.034,-21.112C1010.416,-74.657,949.522,-100.102,885.78,-101.668C818.667,-103.317,744.299,-88.339,712.373,-29.283C681.39,28.028,718.061,92.439,750.21,149.105C782.991,206.885,819.55,271.196,885.78,276.365" fill="rgba(28, 83, 142, 0.4)" class="triangle-float3"></path><path d="M595.2945699449097 434.6096510363259L423.72537471098326 431.6148995938357 420.73062326849305 603.184094827762 592.2998185024194 606.1788462702523z" fill="rgba(28, 83, 142, 0.4)" class="triangle-float3"></path></g><defs><mask id="SvgjsMask1017"><rect width="1920" height="1080" fill="#ffffff"></rect></mask><style>
            @keyframes float1 {
                0%{transform: translate(0, 0)}
                50%{transform: translate(-10px, 0)}
                100%{transform: translate(0, 0)}
            }

            .triangle-float1 {
                animation: float1 5s infinite;
            }

            @keyframes float2 {
                0%{transform: translate(0, 0)}
                50%{transform: translate(-5px, -5px)}
                100%{transform: translate(0, 0)}
            }

            .triangle-float2 {
                animation: float2 4s infinite;
            }

            @keyframes float3 {
                0%{transform: translate(0, 0)}
                50%{transform: translate(0, -10px)}
                100%{transform: translate(0, 0)}
            }

            .triangle-float3 {
                animation: float3 6s infinite;
            }
        </style></defs></svg>