<svg xmlns="http://www.w3.org/2000/svg" version="1.1" xmlns:xlink="http://www.w3.org/1999/xlink" xmlns:svgjs="http://svgjs.com/svgjs" width="1920" height="1080" preserveAspectRatio="none" viewBox="0 0 1920 1080"><g mask="url(&quot;#SvgjsMask1779&quot;)" fill="none"><rect width="1920" height="1080" x="0" y="0" fill="rgba(0, 15, 30, 1)"></rect><use xlink:href="#SvgjsG1790" transform="translate(0, 0)" fill="rgba(14, 62, 110, 1)"></use><use xlink:href="#SvgjsG1790" transform="translate(0, 594)" fill="rgba(14, 62, 110, 1)"></use><use xlink:href="#SvgjsG1790" transform="translate(594, 0)" fill="rgba(14, 62, 110, 1)"></use><use xlink:href="#SvgjsG1790" transform="translate(594, 594)" fill="rgba(14, 62, 110, 1)"></use><use xlink:href="#SvgjsG1790" transform="translate(1188, 0)" fill="rgba(14, 62, 110, 1)"></use><use xlink:href="#SvgjsG1790" transform="translate(1188, 594)" fill="rgba(14, 62, 110, 1)"></use><use xlink:href="#SvgjsG1790" transform="translate(1782, 0)" fill="rgba(14, 62, 110, 1)"></use><use xlink:href="#SvgjsG1790" transform="translate(1782, 594)" fill="rgba(14, 62, 110, 1)"></use></g><defs><mask id="SvgjsMask1779"><rect width="1920" height="1080" fill="#ffffff"></rect></mask><g id="SvgjsG1781"><path d="M6.498 9.304L12.139 3.663l1.565 1.566-5.641 5.641z"></path><path d="M6.8 0.457h2.541v8.028H6.8z"></path><path d="M8.072 10.876L2.429 5.238l1.563-1.566L9.636 9.313zM1.2 13.277h13.733v2.266H1.2z"></path><path d="M0.733 9.143h2.267v6.4h-2.267z m12.267 0h2.267v6.4h-2.267z"></path></g><g id="SvgjsG1786"><path d="M15.233 9.431c0.295 0 0.569-0.239 0.61-0.532 0 0 0.056-0.411 0.056-0.899s-0.056-0.899-0.056-0.899c-0.041-0.292-0.315-0.531-0.61-0.53h-1.524c-0.295 0-0.602-0.188-0.681-0.418s-0.188-0.967 0.021-1.176l1.078-1.077c0.209-0.209 0.225-0.565 0.036-0.792l-1.268-1.268c-0.227-0.189-0.583-0.173-0.792 0.036l-1.078 1.077c-0.208 0.209-0.556 0.293-0.772 0.187s-0.822-0.552-0.821-0.847V0.767c0-0.295-0.239-0.569-0.531-0.61 0 0-0.411-0.057-0.9-0.056s-0.899 0.057-0.899 0.056c-0.293 0.04-0.532 0.315-0.532 0.61v1.524c0 0.295-0.188 0.601-0.418 0.681s-0.967 0.188-1.176-0.021l-1.078-1.078C3.689 1.665 3.333 1.649 3.107 1.837l-1.268 1.268c-0.189 0.227-0.173 0.583 0.036 0.792l1.077 1.078c0.209 0.209 0.293 0.556 0.187 0.772s-0.552 0.822-0.847 0.822H0.767c-0.295 0-0.569 0.239-0.61 0.531 0 0-0.057 0.411-0.056 0.899s0.057 0.899 0.056 0.9c0.04 0.293 0.315 0.532 0.61 0.532h1.525c0.295 0 0.601 0.188 0.681 0.417 0.079 0.23 0.188 0.967-0.02 1.176l-1.078 1.077C1.667 12.311 1.651 12.667 1.84 12.893l1.267 1.268c0.227 0.189 0.583 0.173 0.792-0.036l1.077-1.077c0.209-0.208 0.556-0.292 0.772-0.187s0.821 0.553 0.822 0.848v1.524c0 0.295 0.239 0.569 0.532 0.61 0 0 0.411 0.057 0.899 0.057s0.899-0.056 0.899-0.057c0.293-0.04 0.531-0.315 0.532-0.609v-1.524c0-0.295 0.188-0.602 0.418-0.681 0.23-0.079 0.967-0.188 1.176 0.021l1.077 1.077c0.209 0.209 0.565 0.225 0.792 0.036l1.268-1.267c0.189-0.227 0.173-0.583-0.036-0.792l-1.078-1.077c-0.209-0.209-0.293-0.557-0.186-0.773 0.106-0.216 0.552-0.822 0.847-0.822h1.525zM8 10.892c-1.597 0-2.891-1.294-2.891-2.892 0-1.596 1.295-2.891 2.891-2.891S10.892 6.404 10.892 8 9.597 10.892 8 10.892z"></path></g><g id="SvgjsG1782"><path d="M1.507 0.867v14.666h12.877V0.867h-12.878z m3.76 12.876H3.087V11.564H5.267v2.179z m0-3.328H3.087V8.236H5.267v2.179z m3.768 3.328H6.856V11.564h2.179v2.179z m0-3.328H6.856V8.236h2.179v2.179z m3.775 3.328H10.631v-5.507h2.179v5.507z m0.08-7.65h-9.78V2.602h9.78V6.093z"></path></g><g id="SvgjsG1788"><path d="M11.675 13.031H3.563V2.436h8.112v10.595z m-4.054 1.54a0.457 0.457 0 1 1 0-0.912 0.457 0.457 0 0 1 0 0.912zM6.921 1.287h1.395c0.196 0 0.196 0.356 0 0.356h-1.397c-0.199 0-0.199-0.356 0-0.356zM11.495 0.409H3.744C3.413 0.409 3.143 0.761 3.143 1.191V14.276c0 0.427 0.267 0.779 0.601 0.778h7.751c0.332 0 0.604-0.35 0.605-0.778V1.191c0-0.432-0.272-0.782-0.605-0.782z" fill-rule="evenodd"></path></g><g id="SvgjsG1787"><path d="M10.596 3.917a0.64 0.64 0 0 0-0.639 0.641c0 0.354 0.287 0.64 0.639 0.64a0.639 0.639 0 0 0 0.639-0.64 0.639 0.639 0 0 0-0.639-0.641z m-0.151 5.25a0.642 0.642 0 0 0 0.643 0.641c0.352 0 0.638-0.286 0.637-0.64a0.639 0.639 0 0 0-0.637-0.641 0.641 0.641 0 0 0-0.642 0.641z m-4.678-5.945a0.641 0.641 0 0 0 0 1.282 0.64 0.64 0 0 0 0.642-0.64 0.641 0.641 0 0 0-0.642-0.642z"></path><path d="M8.659 0C5.904 0 3.363 2.068 2.835 4.347c-0.119 0.507-0.25 1.83-0.25 1.829L1.316 9.37A0.488 0.488 0 0 0 1.28 9.561a0.491 0.491 0 0 0 0.491 0.489h0.814v1.697c0 1.323 1.072 2.395 2.394 2.395h0.951V16H12.408V10.847c1.413-1.111 2.32-2.838 2.32-4.775C14.728 2.718 12.01 0 8.659 0z m-4.583 7.387c-0.372 0-0.675-0.304-0.675-0.679a0.677 0.677 0 0 1 0.675-0.677c0.375 0 0.68 0.303 0.68 0.677a0.68 0.68 0 0 1-0.68 0.679z m8.959-0.918l-0.631 0.632-0.77-0.543c-0.148 0.077-0.304 0.139-0.467 0.18l-0.142 0.838h0.294l0.079 0.448c0.031 0.008 0.062 0.013 0.092 0.024 0.079 0.029 0.152 0.067 0.22 0.11l0.355-0.25 0.292 0.291-0.262 0.371c0.056 0.1 0.101 0.206 0.125 0.318l0.429 0.074v0.412l-0.446 0.076c-0.009 0.032-0.013 0.063-0.024 0.094a1.147 1.147 0 0 1-0.112 0.223l0.251 0.353-0.292 0.291-0.369-0.262a1.149 1.149 0 0 1-0.318 0.126l-0.075 0.429H10.851l-0.074-0.448c-0.032-0.009-0.064-0.013-0.096-0.025a1.174 1.174 0 0 1-0.221-0.11l-0.356 0.252L9.815 10.08l0.262-0.37a1.151 1.151 0 0 1-0.125-0.319l-0.431-0.074v-0.411l0.45-0.077c0.008-0.032 0.013-0.063 0.025-0.094 0.029-0.079 0.066-0.152 0.109-0.22l-0.251-0.356 0.291-0.291 0.371 0.262a1.174 1.174 0 0 1 0.317-0.125l0.064-0.372h-0.776L9.96 6.704c-0.035-0.011-0.07-0.02-0.104-0.034a2.221 2.221 0 0 1-0.352-0.168l-0.744 0.524-0.63-0.632 0.542-0.767a2.184 2.184 0 0 1-0.181-0.469l-0.894-0.154V4.27l-0.449 0.078c-0.007 0.022-0.009 0.044-0.017 0.065a1.402 1.402 0 0 1-0.109 0.223l0.345 0.489-0.416 0.414-0.506-0.357a1.438 1.438 0 0 1-0.294 0.116l-0.102 0.586-0.584 0-0.106-0.611c-0.02-0.007-0.042-0.009-0.062-0.017a1.43 1.43 0 0 1-0.226-0.11l-0.49 0.345-0.414-0.415 0.359-0.508a1.485 1.485 0 0 1-0.112-0.291L3.824 4.176V3.589l0.608-0.105c0.007-0.022 0.012-0.043 0.02-0.063 0.029-0.08 0.068-0.154 0.109-0.225l-0.345-0.488 0.413-0.415 0.508 0.358a1.439 1.439 0 0 1 0.295-0.117l0.102-0.586h0.584L6.224 2.56c0.021 0.007 0.043 0.008 0.063 0.016 0.08 0.03 0.154 0.069 0.225 0.11l0.489-0.344 0.415 0.414-0.359 0.507a1.397 1.397 0 0 1 0.115 0.293l0.586 0.101v0.427l0.768-0.132c0.011-0.035 0.02-0.07 0.033-0.105 0.046-0.126 0.104-0.243 0.17-0.355l-0.528-0.74 0.634-0.633 0.77 0.544a2.192 2.192 0 0 1 0.468-0.181l0.151-0.894h0.894l0.162 0.928c0.035 0.01 0.069 0.02 0.104 0.033 0.124 0.046 0.241 0.104 0.352 0.168l0.743-0.523 0.629 0.631-0.542 0.77c0.077 0.148 0.138 0.304 0.18 0.466l0.895 0.154v0.894l-0.929 0.16c-0.011 0.035-0.02 0.07-0.032 0.104-0.046 0.125-0.104 0.242-0.17 0.353l0.525 0.743z"></path></g><g id="SvgjsG1780"><path d="M0.045 14.984h15.726V0H0.045v14.984zM1.389 3.404c0-1.105 0.893-2 2.004-2h9.04a2 2 0 0 1 2.002 2V8.838H13.221l-0.751-2.043a0.317 0.317 0 0 0-0.596 0.004c-0.045 0.125-0.212 0.602-0.42 1.194-0.32-1.336-0.993-4.158-0.993-4.158a0.315 0.315 0 0 0-0.326-0.243c-0.155 0.008-0.28 0.126-0.298 0.28s-0.515 4.598-0.664 5.913c-0.269-0.404-0.536-0.808-0.536-0.809a0.318 0.318 0 0 0-0.264-0.139h-1.221a1168.611 1168.611 0 0 0-0.749-2.043 0.32 0.32 0 0 0-0.301-0.206 0.312 0.312 0 0 0-0.294 0.21l-0.424 1.194c-0.319-1.335-0.992-4.158-0.992-4.157a0.317 0.317 0 0 0-0.624 0.037c0-0.001-0.515 4.596-0.664 5.912L2.567 8.977a0.316 0.316 0 0 0-0.263-0.139H1.389V3.404z m11.043 10.332H3.392a2 2 0 0 1-2.003-2.005v-2.261h0.741c0.156 0.233 0.924 1.389 0.924 1.39a0.318 0.318 0 0 0 0.58-0.14c0.016-0.133 0.341-3.034 0.56-4.975 0.366 1.541 0.821 3.439 0.821 3.439 0.031 0.137 0.15 0.236 0.29 0.243 0.142 0.008 0.269-0.079 0.316-0.211 0 0 0.257-0.731 0.487-1.377 0.243 0.661 0.526 1.423 0.526 1.423a0.312 0.312 0 0 0 0.295 0.208h1.271c0.156 0.232 0.925 1.389 0.925 1.389a0.316 0.316 0 0 0 0.337 0.132c0.131-0.03 0.227-0.14 0.241-0.272s0.342-3.034 0.561-4.976c0.366 1.543 0.819 3.44 0.82 3.44 0.032 0.137 0.15 0.236 0.29 0.243 0.142 0.008 0.269-0.079 0.315-0.211 0 0 0.26-0.731 0.488-1.377 0.242 0.661 0.523 1.423 0.523 1.423a0.315 0.315 0 0 0 0.296 0.208h1.436v2.261a2.001 2.001 0 0 1-2 2.003z" fill-rule="evenodd"></path></g><g id="SvgjsG1789"><path d="M3.044 12.188V8.93c0-2.836 2.475-5.244 5.463-5.245 3.022-0.004 5.465 2.352 5.465 5.245v3.258h1.351V8.93C15.332 5.276 12.27 2.325 8.51 2.325 4.777 2.325 1.689 5.333 1.689 8.93v3.258h1.355z"></path><path d="M5.463 14.702l-1.781 0.006V9.593h1.785c0.921 2.372 0 5.111 0 5.111m6.049-5.109H13.298V14.702l-1.783 0.006c-0.921-2.373 0-5.113 0-5.113"></path></g><g id="SvgjsG1785"><path d="M15.964 4.774l-1.312 10.327H10.223L8.916 4.774h5.408L15.395 1.04 16 1.21l-1.024 3.562 0.988 0.002zM8.29 10.788s0.166-1.502-2.131-1.502H2.5c-2.293 0-2.131 1.502-2.132 1.502h7.922zM0.368 13.595s-0.162 1.506 2.132 1.506h3.659c2.297 0 2.131-1.506 2.131-1.506H0.369z m7.578-0.727a0.68 0.68 0 0 0 0.68-0.68c0-0.372-0.304-0.676-0.68-0.676H0.68C0.306 11.512 0 11.816 0 12.188a0.682 0.682 0 0 0 0.68 0.68h7.266z"></path></g><g id="SvgjsG1784"><path d="M16 14.068H0V2h16v12.068z m-14.107-1.117h12.214L10.088 8.837l-0.761 0.766c-0.33 0.329-0.801 0.518-1.297 0.517l-0.008 0c-0.498-0.002-0.971-0.195-1.299-0.529l-0.773-0.783-4.057 4.144zM1.116 3.916v8.233L5.165 8.014 1.116 3.916zM10.874 8.045l4.01 4.104V4.008l-4.01 4.037zM1.896 3.117l5.622 5.691c0.122 0.124 0.307 0.195 0.508 0.195h0.003c0.198 0 0.388-0.07 0.506-0.189L14.196 3.116H1.896z"></path></g><g id="SvgjsG1783"><path d="M15.769 13.134v-0.004s-3.022-3.019-3.024-3.02a0.605 0.605 0 0 0-0.858 0.002L10.496 11.509c-0.541 0.541-1.238 0.061-2.577-1.031-0.886-0.722-1.905-1.693-2.788-2.788-0.62-0.768-1.168-1.575-0.602-2.141 0.001-0.001 1.397-1.393 1.398-1.395l0.001-0.003c0.251-0.25 0.226-0.634-0.003-0.862v-0.004L2.813 0.177c-0.24-0.239-0.623-0.234-0.858 0.002L0.553 1.58C-0.024 2.303-1.307 5.747 4.194 11.385c5.795 5.94 9.534 4.669 10.177 3.999 0 0 1.4-1.383 1.4-1.384l0.001-0.003c0.251-0.251 0.225-0.635-0.002-0.864z"></path></g><g id="SvgjsG1790"><use xlink:href="#SvgjsG1780" transform="translate(0, 0) scale(2.2)" fill="rgba(14, 62, 110, 1)"></use><use xlink:href="#SvgjsG1781" transform="translate(0, 59.400000000000006) scale(2.2)" fill="rgba(14, 62, 110, 1)"></use><use xlink:href="#SvgjsG1782" transform="translate(0, 118.80000000000001) scale(2.2)" fill="rgba(14, 62, 110, 1)"></use><use xlink:href="#SvgjsG1783" transform="translate(0, 178.20000000000002) scale(2.2)" fill="rgba(14, 62, 110, 1)"></use><use xlink:href="#SvgjsG1780" transform="translate(0, 237.60000000000002) scale(2.2)" fill="rgba(14, 62, 110, 1)"></use><use xlink:href="#SvgjsG1784" transform="translate(0, 297) scale(2.2)" fill="rgba(14, 62, 110, 1)"></use><use xlink:href="#SvgjsG1780" transform="translate(0, 356.40000000000003) scale(2.2)" fill="rgba(14, 62, 110, 1)"></use><use xlink:href="#SvgjsG1780" transform="translate(0, 415.80000000000007) scale(2.2)" fill="rgba(14, 62, 110, 1)"></use><use xlink:href="#SvgjsG1780" transform="translate(0, 475.20000000000005) scale(2.2)" fill="rgba(14, 62, 110, 1)"></use><use xlink:href="#SvgjsG1785" transform="translate(0, 534.6) scale(2.2)" fill="rgba(14, 62, 110, 1)"></use><use xlink:href="#SvgjsG1781" transform="translate(59.400000000000006, 0) scale(2.2)" fill="rgba(14, 62, 110, 1)"></use><use xlink:href="#SvgjsG1781" transform="translate(59.400000000000006, 59.400000000000006) scale(2.2)" fill="rgba(14, 62, 110, 1)"></use><use xlink:href="#SvgjsG1786" transform="translate(59.400000000000006, 118.80000000000001) scale(2.2)" fill="rgba(14, 62, 110, 1)"></use><use xlink:href="#SvgjsG1780" transform="translate(59.400000000000006, 178.20000000000002) scale(2.2)" fill="rgba(14, 62, 110, 1)"></use><use xlink:href="#SvgjsG1783" transform="translate(59.400000000000006, 237.60000000000002) scale(2.2)" fill="rgba(14, 62, 110, 1)"></use><use xlink:href="#SvgjsG1782" transform="translate(59.400000000000006, 297) scale(2.2)" fill="rgba(14, 62, 110, 1)"></use><use xlink:href="#SvgjsG1787" transform="translate(59.400000000000006, 356.40000000000003) scale(2.2)" fill="rgba(14, 62, 110, 1)"></use><use xlink:href="#SvgjsG1785" transform="translate(59.400000000000006, 415.80000000000007) scale(2.2)" fill="rgba(14, 62, 110, 1)"></use><use xlink:href="#SvgjsG1788" transform="translate(59.400000000000006, 475.20000000000005) scale(2.2)" fill="rgba(14, 62, 110, 1)"></use><use xlink:href="#SvgjsG1789" transform="translate(59.400000000000006, 534.6) scale(2.2)" fill="rgba(14, 62, 110, 1)"></use><use xlink:href="#SvgjsG1789" transform="translate(118.80000000000001, 0) scale(2.2)" fill="rgba(14, 62, 110, 1)"></use><use xlink:href="#SvgjsG1787" transform="translate(118.80000000000001, 59.400000000000006) scale(2.2)" fill="rgba(14, 62, 110, 1)"></use><use xlink:href="#SvgjsG1788" transform="translate(118.80000000000001, 118.80000000000001) scale(2.2)" fill="rgba(14, 62, 110, 1)"></use><use xlink:href="#SvgjsG1782" transform="translate(118.80000000000001, 178.20000000000002) scale(2.2)" fill="rgba(14, 62, 110, 1)"></use><use xlink:href="#SvgjsG1783" transform="translate(118.80000000000001, 237.60000000000002) scale(2.2)" fill="rgba(14, 62, 110, 1)"></use><use xlink:href="#SvgjsG1780" transform="translate(118.80000000000001, 297) scale(2.2)" fill="rgba(14, 62, 110, 1)"></use><use xlink:href="#SvgjsG1786" transform="translate(118.80000000000001, 356.40000000000003) scale(2.2)" fill="rgba(14, 62, 110, 1)"></use><use xlink:href="#SvgjsG1785" transform="translate(118.80000000000001, 415.80000000000007) scale(2.2)" fill="rgba(14, 62, 110, 1)"></use><use xlink:href="#SvgjsG1786" transform="translate(118.80000000000001, 475.20000000000005) scale(2.2)" fill="rgba(14, 62, 110, 1)"></use><use xlink:href="#SvgjsG1786" transform="translate(118.80000000000001, 534.6) scale(2.2)" fill="rgba(14, 62, 110, 1)"></use><use xlink:href="#SvgjsG1787" transform="translate(178.20000000000002, 0) scale(2.2)" fill="rgba(14, 62, 110, 1)"></use><use xlink:href="#SvgjsG1780" transform="translate(178.20000000000002, 59.400000000000006) scale(2.2)" fill="rgba(14, 62, 110, 1)"></use><use xlink:href="#SvgjsG1782" transform="translate(178.20000000000002, 118.80000000000001) scale(2.2)" fill="rgba(14, 62, 110, 1)"></use><use xlink:href="#SvgjsG1786" transform="translate(178.20000000000002, 178.20000000000002) scale(2.2)" fill="rgba(14, 62, 110, 1)"></use><use xlink:href="#SvgjsG1781" transform="translate(178.20000000000002, 237.60000000000002) scale(2.2)" fill="rgba(14, 62, 110, 1)"></use><use xlink:href="#SvgjsG1782" transform="translate(178.20000000000002, 297) scale(2.2)" fill="rgba(14, 62, 110, 1)"></use><use xlink:href="#SvgjsG1781" transform="translate(178.20000000000002, 356.40000000000003) scale(2.2)" fill="rgba(14, 62, 110, 1)"></use><use xlink:href="#SvgjsG1789" transform="translate(178.20000000000002, 415.80000000000007) scale(2.2)" fill="rgba(14, 62, 110, 1)"></use><use xlink:href="#SvgjsG1782" transform="translate(178.20000000000002, 475.20000000000005) scale(2.2)" fill="rgba(14, 62, 110, 1)"></use><use xlink:href="#SvgjsG1787" transform="translate(178.20000000000002, 534.6) scale(2.2)" fill="rgba(14, 62, 110, 1)"></use><use xlink:href="#SvgjsG1785" transform="translate(237.60000000000002, 0) scale(2.2)" fill="rgba(14, 62, 110, 1)"></use><use xlink:href="#SvgjsG1787" transform="translate(237.60000000000002, 59.400000000000006) scale(2.2)" fill="rgba(14, 62, 110, 1)"></use><use xlink:href="#SvgjsG1787" transform="translate(237.60000000000002, 118.80000000000001) scale(2.2)" fill="rgba(14, 62, 110, 1)"></use><use xlink:href="#SvgjsG1785" transform="translate(237.60000000000002, 178.20000000000002) scale(2.2)" fill="rgba(14, 62, 110, 1)"></use><use xlink:href="#SvgjsG1784" transform="translate(237.60000000000002, 237.60000000000002) scale(2.2)" fill="rgba(14, 62, 110, 1)"></use><use xlink:href="#SvgjsG1782" transform="translate(237.60000000000002, 297) scale(2.2)" fill="rgba(14, 62, 110, 1)"></use><use xlink:href="#SvgjsG1786" transform="translate(237.60000000000002, 356.40000000000003) scale(2.2)" fill="rgba(14, 62, 110, 1)"></use><use xlink:href="#SvgjsG1789" transform="translate(237.60000000000002, 415.80000000000007) scale(2.2)" fill="rgba(14, 62, 110, 1)"></use><use xlink:href="#SvgjsG1782" transform="translate(237.60000000000002, 475.20000000000005) scale(2.2)" fill="rgba(14, 62, 110, 1)"></use><use xlink:href="#SvgjsG1784" transform="translate(237.60000000000002, 534.6) scale(2.2)" fill="rgba(14, 62, 110, 1)"></use><use xlink:href="#SvgjsG1782" transform="translate(297, 0) scale(2.2)" fill="rgba(14, 62, 110, 1)"></use><use xlink:href="#SvgjsG1781" transform="translate(297, 59.400000000000006) scale(2.2)" fill="rgba(14, 62, 110, 1)"></use><use xlink:href="#SvgjsG1789" transform="translate(297, 118.80000000000001) scale(2.2)" fill="rgba(14, 62, 110, 1)"></use><use xlink:href="#SvgjsG1787" transform="translate(297, 178.20000000000002) scale(2.2)" fill="rgba(14, 62, 110, 1)"></use><use xlink:href="#SvgjsG1787" transform="translate(297, 237.60000000000002) scale(2.2)" fill="rgba(14, 62, 110, 1)"></use><use xlink:href="#SvgjsG1782" transform="translate(297, 297) scale(2.2)" fill="rgba(14, 62, 110, 1)"></use><use xlink:href="#SvgjsG1787" transform="translate(297, 356.40000000000003) scale(2.2)" fill="rgba(14, 62, 110, 1)"></use><use xlink:href="#SvgjsG1789" transform="translate(297, 415.80000000000007) scale(2.2)" fill="rgba(14, 62, 110, 1)"></use><use xlink:href="#SvgjsG1786" transform="translate(297, 475.20000000000005) scale(2.2)" fill="rgba(14, 62, 110, 1)"></use><use xlink:href="#SvgjsG1786" transform="translate(297, 534.6) scale(2.2)" fill="rgba(14, 62, 110, 1)"></use><use xlink:href="#SvgjsG1788" transform="translate(356.40000000000003, 0) scale(2.2)" fill="rgba(14, 62, 110, 1)"></use><use xlink:href="#SvgjsG1784" transform="translate(356.40000000000003, 59.400000000000006) scale(2.2)" fill="rgba(14, 62, 110, 1)"></use><use xlink:href="#SvgjsG1788" transform="translate(356.40000000000003, 118.80000000000001) scale(2.2)" fill="rgba(14, 62, 110, 1)"></use><use xlink:href="#SvgjsG1780" transform="translate(356.40000000000003, 178.20000000000002) scale(2.2)" fill="rgba(14, 62, 110, 1)"></use><use xlink:href="#SvgjsG1788" transform="translate(356.40000000000003, 237.60000000000002) scale(2.2)" fill="rgba(14, 62, 110, 1)"></use><use xlink:href="#SvgjsG1784" transform="translate(356.40000000000003, 297) scale(2.2)" fill="rgba(14, 62, 110, 1)"></use><use xlink:href="#SvgjsG1780" transform="translate(356.40000000000003, 356.40000000000003) scale(2.2)" fill="rgba(14, 62, 110, 1)"></use><use xlink:href="#SvgjsG1785" transform="translate(356.40000000000003, 415.80000000000007) scale(2.2)" fill="rgba(14, 62, 110, 1)"></use><use xlink:href="#SvgjsG1782" transform="translate(356.40000000000003, 475.20000000000005) scale(2.2)" fill="rgba(14, 62, 110, 1)"></use><use xlink:href="#SvgjsG1780" transform="translate(356.40000000000003, 534.6) scale(2.2)" fill="rgba(14, 62, 110, 1)"></use><use xlink:href="#SvgjsG1785" transform="translate(415.80000000000007, 0) scale(2.2)" fill="rgba(14, 62, 110, 1)"></use><use xlink:href="#SvgjsG1782" transform="translate(415.80000000000007, 59.400000000000006) scale(2.2)" fill="rgba(14, 62, 110, 1)"></use><use xlink:href="#SvgjsG1783" transform="translate(415.80000000000007, 118.80000000000001) scale(2.2)" fill="rgba(14, 62, 110, 1)"></use><use xlink:href="#SvgjsG1787" transform="translate(415.80000000000007, 178.20000000000002) scale(2.2)" fill="rgba(14, 62, 110, 1)"></use><use xlink:href="#SvgjsG1789" transform="translate(415.80000000000007, 237.60000000000002) scale(2.2)" fill="rgba(14, 62, 110, 1)"></use><use xlink:href="#SvgjsG1788" transform="translate(415.80000000000007, 297) scale(2.2)" fill="rgba(14, 62, 110, 1)"></use><use xlink:href="#SvgjsG1789" transform="translate(415.80000000000007, 356.40000000000003) scale(2.2)" fill="rgba(14, 62, 110, 1)"></use><use xlink:href="#SvgjsG1780" transform="translate(415.80000000000007, 415.80000000000007) scale(2.2)" fill="rgba(14, 62, 110, 1)"></use><use xlink:href="#SvgjsG1782" transform="translate(415.80000000000007, 475.20000000000005) scale(2.2)" fill="rgba(14, 62, 110, 1)"></use><use xlink:href="#SvgjsG1780" transform="translate(415.80000000000007, 534.6) scale(2.2)" fill="rgba(14, 62, 110, 1)"></use><use xlink:href="#SvgjsG1781" transform="translate(475.20000000000005, 0) scale(2.2)" fill="rgba(14, 62, 110, 1)"></use><use xlink:href="#SvgjsG1789" transform="translate(475.20000000000005, 59.400000000000006) scale(2.2)" fill="rgba(14, 62, 110, 1)"></use><use xlink:href="#SvgjsG1789" transform="translate(475.20000000000005, 118.80000000000001) scale(2.2)" fill="rgba(14, 62, 110, 1)"></use><use xlink:href="#SvgjsG1788" transform="translate(475.20000000000005, 178.20000000000002) scale(2.2)" fill="rgba(14, 62, 110, 1)"></use><use xlink:href="#SvgjsG1788" transform="translate(475.20000000000005, 237.60000000000002) scale(2.2)" fill="rgba(14, 62, 110, 1)"></use><use xlink:href="#SvgjsG1787" transform="translate(475.20000000000005, 297) scale(2.2)" fill="rgba(14, 62, 110, 1)"></use><use xlink:href="#SvgjsG1783" transform="translate(475.20000000000005, 356.40000000000003) scale(2.2)" fill="rgba(14, 62, 110, 1)"></use><use xlink:href="#SvgjsG1788" transform="translate(475.20000000000005, 415.80000000000007) scale(2.2)" fill="rgba(14, 62, 110, 1)"></use><use xlink:href="#SvgjsG1788" transform="translate(475.20000000000005, 475.20000000000005) scale(2.2)" fill="rgba(14, 62, 110, 1)"></use><use xlink:href="#SvgjsG1782" transform="translate(475.20000000000005, 534.6) scale(2.2)" fill="rgba(14, 62, 110, 1)"></use><use xlink:href="#SvgjsG1787" transform="translate(534.6, 0) scale(2.2)" fill="rgba(14, 62, 110, 1)"></use><use xlink:href="#SvgjsG1785" transform="translate(534.6, 59.400000000000006) scale(2.2)" fill="rgba(14, 62, 110, 1)"></use><use xlink:href="#SvgjsG1784" transform="translate(534.6, 118.80000000000001) scale(2.2)" fill="rgba(14, 62, 110, 1)"></use><use xlink:href="#SvgjsG1785" transform="translate(534.6, 178.20000000000002) scale(2.2)" fill="rgba(14, 62, 110, 1)"></use><use xlink:href="#SvgjsG1788" transform="translate(534.6, 237.60000000000002) scale(2.2)" fill="rgba(14, 62, 110, 1)"></use><use xlink:href="#SvgjsG1781" transform="translate(534.6, 297) scale(2.2)" fill="rgba(14, 62, 110, 1)"></use><use xlink:href="#SvgjsG1782" transform="translate(534.6, 356.40000000000003) scale(2.2)" fill="rgba(14, 62, 110, 1)"></use><use xlink:href="#SvgjsG1787" transform="translate(534.6, 415.80000000000007) scale(2.2)" fill="rgba(14, 62, 110, 1)"></use><use xlink:href="#SvgjsG1788" transform="translate(534.6, 475.20000000000005) scale(2.2)" fill="rgba(14, 62, 110, 1)"></use><use xlink:href="#SvgjsG1780" transform="translate(534.6, 534.6) scale(2.2)" fill="rgba(14, 62, 110, 1)"></use></g></defs></svg>